# xmcd CD database file
#
# Track frame offsets:
#	150
#	1570
#	6535
#	14028
#	24273
#	40803
#	42799
#	59051
#	70787
#	74031
#	91137
#	96358
#	112568
#	125984
#	131122
#	145585
#	150563
#	168536
#	173546
#	182991
#	190683
#	208781
#	223775
#	237195
#	242039
#	249539
#	254402
#	262670
#	268410
#	287865
#	294453
#	304279
#	312163
#	319896
#	326832
#	354568
#
# Disc length: 4764 seconds
#
# Revision: 0
# Processed by: cddbd v1.5.1PL2 Copyright (c) Steve Scherf et al.
# Submitted via: CDex 1.51
#
DISCID=20129a24
DTITLE=Ronald Spanier - Bits and Pieces
DYEAR=2005
DGENRE=Jazz
TTITLE0=Behind the Clouds
TTITLE1=Heavy Traffic
TTITLE2=Sunset
TTITLE3=Could You Hold for a Second
TTITLE4=Tell Me Where is Fancy Bred
TTITLE5=Green (short version)
TTITLE6=The Moon has a Face
TTITLE7=Spilled Sandwich Spread
TTITLE8=You Had Your Fun
TTITLE9=Shakey's
TTITLE10=Don't Ask
TTITLE11=About to Leave
TTITLE12=Lust in Action
TTITLE13=Bedtime
TTITLE14=Waltz
TTITLE15=Never Ending
TTITLE16=Don't Just Stand There
TTITLE17=And Then I Knew
TTITLE18=Somebody's Fault
TTITLE19=There's More To It
TTITLE20=Come Away
TTITLE21=Glad I Told You
TTITLE22=Bouncing Eggs
TTITLE23=Stop Wondering Why
TTITLE24=Try Again
TTITLE25=I'll Be Around
TTITLE26=A Lifetime
TTITLE27=Told You So
TTITLE28=Green
TTITLE29=Can't Believe You're Telling Me This
TTITLE30=Can't Believe You're Telling Me This (In An Elevator)
TTITLE31=I Couldn't Care Less
TTITLE32=Surprise Surprise
TTITLE33=State of Mind
TTITLE34=Think Twice
TTITLE35=Hunting Mice
EXTD=YEAR: 2005
EXTT0=
EXTT1=
EXTT2=
EXTT3=
EXTT4=
EXTT5=
EXTT6=
EXTT7=
EXTT8=
EXTT9=
EXTT10=
EXTT11=
EXTT12=
EXTT13=
EXTT14=
EXTT15=
EXTT16=
EXTT17=
EXTT18=
EXTT19=
EXTT20=
EXTT21=
EXTT22=
EXTT23=
EXTT24=
EXTT25=
EXTT26=
EXTT27=
EXTT28=
EXTT29=
EXTT30=
EXTT31=
EXTT32=
EXTT33=
EXTT34=
EXTT35=
PLAYORDER=
